<mxfile host="app.diagrams.net" modified="2020-09-16T13:14:59.740Z" agent="5.0 (Macintosh; Intel Mac OS X 10_14_6) AppleWebKit/537.36 (KHTML, like Gecko) Chrome/84.0.4147.135 Safari/537.36" etag="HqApR_89daFIxv3fZmGP" version="13.6.4" type="github">
  <diagram name="Page-1" id="efa7a0a1-bf9b-a30e-e6df-94a7791c09e9">
    <mxGraphModel dx="988" dy="663" grid="1" gridSize="10" guides="1" tooltips="1" connect="1" arrows="1" fold="1" page="1" pageScale="1" pageWidth="826" pageHeight="1169" background="#ffffff" math="0" shadow="0">
      <root>
        <mxCell id="0" />
        <mxCell id="1" parent="0" />
        <mxCell id="uc-OmskmSnvwY2WYjZqT-125" value="" style="rounded=0;whiteSpace=wrap;html=1;fillColor=#f5f5f5;strokeColor=#666666;fontColor=#333333;" vertex="1" parent="1">
          <mxGeometry x="70" y="190" width="640" height="330" as="geometry" />
        </mxCell>
        <mxCell id="uc-OmskmSnvwY2WYjZqT-126" value="配置管理" style="rounded=0;whiteSpace=wrap;html=1;fillColor=#1ba1e2;strokeColor=#006EAF;fontColor=#ffffff;" vertex="1" parent="1">
          <mxGeometry x="100" y="230" width="100" height="30" as="geometry" />
        </mxCell>
        <mxCell id="uc-OmskmSnvwY2WYjZqT-127" value="&lt;font style=&quot;font-size: 11px&quot;&gt;IDC/网络设备配置&lt;/font&gt;" style="rounded=0;whiteSpace=wrap;html=1;fontSize=10;fillColor=#dae8fc;strokeColor=#6c8ebf;" vertex="1" parent="1">
          <mxGeometry x="100" y="280" width="100" height="30" as="geometry" />
        </mxCell>
        <mxCell id="uc-OmskmSnvwY2WYjZqT-128" value="专线&amp;amp;出口配置" style="rounded=0;whiteSpace=wrap;html=1;fillColor=#dae8fc;strokeColor=#6c8ebf;" vertex="1" parent="1">
          <mxGeometry x="100" y="330" width="100" height="30" as="geometry" />
        </mxCell>
        <mxCell id="uc-OmskmSnvwY2WYjZqT-129" value="IDC机位管理" style="rounded=0;whiteSpace=wrap;html=1;fillColor=#dae8fc;strokeColor=#6c8ebf;" vertex="1" parent="1">
          <mxGeometry x="100" y="380" width="100" height="30" as="geometry" />
        </mxCell>
        <mxCell id="uc-OmskmSnvwY2WYjZqT-130" value="" style="rounded=0;whiteSpace=wrap;html=1;fillColor=#dae8fc;strokeColor=#6c8ebf;" vertex="1" parent="1">
          <mxGeometry x="100" y="430" width="100" height="30" as="geometry" />
        </mxCell>
        <mxCell id="uc-OmskmSnvwY2WYjZqT-133" value="&lt;span&gt;网络监控&lt;/span&gt;" style="rounded=0;whiteSpace=wrap;html=1;fillColor=#1ba1e2;strokeColor=#006EAF;fontColor=#ffffff;" vertex="1" parent="1">
          <mxGeometry x="340" y="230" width="100" height="30" as="geometry" />
        </mxCell>
        <mxCell id="uc-OmskmSnvwY2WYjZqT-134" value="设备配置管理" style="rounded=0;whiteSpace=wrap;html=1;fillColor=#dae8fc;strokeColor=#6c8ebf;" vertex="1" parent="1">
          <mxGeometry x="340" y="280" width="100" height="30" as="geometry" />
        </mxCell>
        <mxCell id="uc-OmskmSnvwY2WYjZqT-135" value="网络拓扑发现" style="rounded=0;whiteSpace=wrap;html=1;fillColor=#dae8fc;strokeColor=#6c8ebf;" vertex="1" parent="1">
          <mxGeometry x="340" y="330" width="100" height="30" as="geometry" />
        </mxCell>
        <mxCell id="uc-OmskmSnvwY2WYjZqT-136" value="" style="rounded=0;whiteSpace=wrap;html=1;fillColor=#dae8fc;strokeColor=#6c8ebf;" vertex="1" parent="1">
          <mxGeometry x="340" y="380" width="100" height="30" as="geometry" />
        </mxCell>
        <mxCell id="uc-OmskmSnvwY2WYjZqT-137" value="" style="rounded=0;whiteSpace=wrap;html=1;fillColor=#dae8fc;strokeColor=#6c8ebf;" vertex="1" parent="1">
          <mxGeometry x="340" y="430" width="100" height="30" as="geometry" />
        </mxCell>
        <mxCell id="uc-OmskmSnvwY2WYjZqT-138" value="CMDB" style="text;html=1;resizable=0;autosize=1;align=center;verticalAlign=middle;points=[];fillColor=none;strokeColor=none;rounded=0;" vertex="1" parent="1">
          <mxGeometry x="125" y="200" width="50" height="20" as="geometry" />
        </mxCell>
        <mxCell id="uc-OmskmSnvwY2WYjZqT-140" value="网络监控" style="rounded=0;whiteSpace=wrap;html=1;fillColor=#1ba1e2;strokeColor=#006EAF;fontColor=#ffffff;" vertex="1" parent="1">
          <mxGeometry x="460" y="230" width="100" height="30" as="geometry" />
        </mxCell>
        <mxCell id="uc-OmskmSnvwY2WYjZqT-141" value="&lt;span&gt;SNMP采集&lt;/span&gt;" style="rounded=0;whiteSpace=wrap;html=1;fillColor=#dae8fc;strokeColor=#6c8ebf;" vertex="1" parent="1">
          <mxGeometry x="460" y="280" width="100" height="30" as="geometry" />
        </mxCell>
        <mxCell id="uc-OmskmSnvwY2WYjZqT-142" value="&lt;span&gt;自定义SNMP采集&lt;/span&gt;" style="rounded=0;whiteSpace=wrap;html=1;fillColor=#dae8fc;strokeColor=#6c8ebf;" vertex="1" parent="1">
          <mxGeometry x="460" y="330" width="100" height="30" as="geometry" />
        </mxCell>
        <mxCell id="uc-OmskmSnvwY2WYjZqT-143" value="配置监控" style="rounded=0;whiteSpace=wrap;html=1;fillColor=#dae8fc;strokeColor=#6c8ebf;" vertex="1" parent="1">
          <mxGeometry x="460" y="380" width="100" height="30" as="geometry" />
        </mxCell>
        <mxCell id="uc-OmskmSnvwY2WYjZqT-144" value="状态监控" style="rounded=0;whiteSpace=wrap;html=1;fillColor=#dae8fc;strokeColor=#6c8ebf;" vertex="1" parent="1">
          <mxGeometry x="460" y="430" width="100" height="30" as="geometry" />
        </mxCell>
        <mxCell id="uc-OmskmSnvwY2WYjZqT-145" value="MONITOR" style="text;html=1;resizable=0;autosize=1;align=center;verticalAlign=middle;points=[];fillColor=none;strokeColor=none;rounded=0;" vertex="1" parent="1">
          <mxGeometry x="413" y="200" width="70" height="20" as="geometry" />
        </mxCell>
        <mxCell id="uc-OmskmSnvwY2WYjZqT-146" value="告警管理" style="rounded=0;whiteSpace=wrap;html=1;fillColor=#1ba1e2;strokeColor=#006EAF;fontColor=#ffffff;" vertex="1" parent="1">
          <mxGeometry x="580" y="230" width="100" height="30" as="geometry" />
        </mxCell>
        <mxCell id="uc-OmskmSnvwY2WYjZqT-147" value="告警配置" style="rounded=0;whiteSpace=wrap;html=1;fillColor=#dae8fc;strokeColor=#6c8ebf;" vertex="1" parent="1">
          <mxGeometry x="580" y="280" width="100" height="30" as="geometry" />
        </mxCell>
        <mxCell id="uc-OmskmSnvwY2WYjZqT-148" value="告警触发" style="rounded=0;whiteSpace=wrap;html=1;fillColor=#dae8fc;strokeColor=#6c8ebf;" vertex="1" parent="1">
          <mxGeometry x="580" y="330" width="100" height="30" as="geometry" />
        </mxCell>
        <mxCell id="uc-OmskmSnvwY2WYjZqT-149" value="告警上报" style="rounded=0;whiteSpace=wrap;html=1;fillColor=#dae8fc;strokeColor=#6c8ebf;" vertex="1" parent="1">
          <mxGeometry x="580" y="380" width="100" height="30" as="geometry" />
        </mxCell>
        <mxCell id="uc-OmskmSnvwY2WYjZqT-150" value="" style="rounded=0;whiteSpace=wrap;html=1;fillColor=#dae8fc;strokeColor=#6c8ebf;" vertex="1" parent="1">
          <mxGeometry x="580" y="430" width="100" height="30" as="geometry" />
        </mxCell>
        <mxCell id="uc-OmskmSnvwY2WYjZqT-151" value="ALERT" style="text;html=1;resizable=0;autosize=1;align=center;verticalAlign=middle;points=[];fillColor=none;strokeColor=none;rounded=0;" vertex="1" parent="1">
          <mxGeometry x="605" y="200" width="50" height="20" as="geometry" />
        </mxCell>
        <mxCell id="uc-OmskmSnvwY2WYjZqT-152" value="IP资源管理" style="rounded=0;whiteSpace=wrap;html=1;fillColor=#1ba1e2;strokeColor=#006EAF;fontColor=#ffffff;" vertex="1" parent="1">
          <mxGeometry x="220" y="230" width="100" height="30" as="geometry" />
        </mxCell>
        <mxCell id="uc-OmskmSnvwY2WYjZqT-153" value="IP地址管理" style="rounded=0;whiteSpace=wrap;html=1;fillColor=#dae8fc;strokeColor=#6c8ebf;" vertex="1" parent="1">
          <mxGeometry x="220" y="280" width="100" height="30" as="geometry" />
        </mxCell>
        <mxCell id="uc-OmskmSnvwY2WYjZqT-154" value="" style="rounded=0;whiteSpace=wrap;html=1;fillColor=#dae8fc;strokeColor=#6c8ebf;" vertex="1" parent="1">
          <mxGeometry x="220" y="330" width="100" height="30" as="geometry" />
        </mxCell>
        <mxCell id="uc-OmskmSnvwY2WYjZqT-155" value="" style="rounded=0;whiteSpace=wrap;html=1;fillColor=#dae8fc;strokeColor=#6c8ebf;" vertex="1" parent="1">
          <mxGeometry x="220" y="380" width="100" height="30" as="geometry" />
        </mxCell>
        <mxCell id="uc-OmskmSnvwY2WYjZqT-156" value="" style="rounded=0;whiteSpace=wrap;html=1;fillColor=#dae8fc;strokeColor=#6c8ebf;" vertex="1" parent="1">
          <mxGeometry x="220" y="430" width="100" height="30" as="geometry" />
        </mxCell>
        <mxCell id="uc-OmskmSnvwY2WYjZqT-157" value="IPMS" style="text;html=1;resizable=0;autosize=1;align=center;verticalAlign=middle;points=[];fillColor=none;strokeColor=none;rounded=0;" vertex="1" parent="1">
          <mxGeometry x="250" y="200" width="40" height="20" as="geometry" />
        </mxCell>
      </root>
    </mxGraphModel>
  </diagram>
</mxfile>
